<svg id="Layer_1" data-name="Layer 1" xmlns="http://www.w3.org/2000/svg" xmlns:xlink="http://www.w3.org/1999/xlink" viewBox="0 0 350 196"><defs><style>.cls-1{fill:#94c940;}.cls-2{opacity:0.75;fill:url(#linear-gradient);}.cls-3{fill:#fff;}</style><linearGradient id="linear-gradient" x1="68.78" y1="212.59" x2="209.1" y2="72.28" gradientUnits="userSpaceOnUse"><stop offset="0" stop-color="#44a447" stop-opacity="0"/><stop offset="1" stop-color="#44a447" stop-opacity="0.97"/></linearGradient></defs><title>marketplace-category-thumbnail-asset-tracking</title><rect class="cls-1" x="-10" y="-10" width="370" height="216"/><path class="cls-2" d="M205.39,124.12l-.29-.09c-.43.58-35.56,35.94-35.56,35.94-2.42-.11-4.71-.3-6.95-.53L175,147h0s45.89-48.14,45.89-73.47a45.88,45.88,0,0,0-81.36-29.1L-10,194v12H172.69l49.16-49.17a21.92,21.92,0,0,0,4.79-4.78,13.39,13.39,0,0,0,2.62-7.82C229.26,134.83,219.15,128.05,205.39,124.12Z"/><path class="cls-3" d="M220.89,73.57a45.89,45.89,0,0,0-91.78,0C129.11,98.9,175,147,175,147S220.89,98.9,220.89,73.57Zm-63.2,0A17.32,17.32,0,1,1,175,90.88,17.34,17.34,0,0,1,157.69,73.57Zm71.57,70.66c0,15.65-28,24.09-54.26,24.09s-54.26-8.44-54.26-24.09c0-9.47,10.25-16.28,24.16-20.2q2.74,3.69,5.44,7.08c-13.52,3.23-21.36,8.72-21.36,13.12,0,6.62,17.5,15.86,46,15.86s46-9.24,46-15.86c0-4.4-7.84-9.89-21.37-13.12q2.7-3.39,5.45-7.08C219,128,229.26,134.76,229.26,144.23Z"/></svg>