<svg id="Layer_1" data-name="Layer 1" xmlns="http://www.w3.org/2000/svg" xmlns:xlink="http://www.w3.org/1999/xlink" viewBox="0 0 350 196"><defs><style>.cls-1{fill:#f9d20a;}.cls-2{opacity:0.3;fill:url(#linear-gradient);}.cls-3{fill:#fff;}</style><linearGradient id="linear-gradient" x1="53.29" y1="209.91" x2="177.21" y2="85.99" gradientUnits="userSpaceOnUse"><stop offset="0" stop-color="#f78d1e" stop-opacity="0"/><stop offset="1" stop-color="#f78d1e"/></linearGradient></defs><title>marketplace-category-thumbnail-maintenance-and-diagnostics</title><rect class="cls-1" x="-10" y="-10" width="370" height="216"/><path class="cls-2" d="M161.56,206l87-87a3.52,3.52,0,0,0,1.6-3V53.13a3.55,3.55,0,0,0-3.55-3.61h-8.84a3.49,3.49,0,0,0-1.67.44,3.67,3.67,0,0,0-1.48,1.47l-7.21,7.22h-.12V48.54A3.59,3.59,0,0,0,223.71,45H199V38.37a3.58,3.58,0,0,0-3.58-3.58H155.79a3.39,3.39,0,0,0-1.76.44,3.44,3.44,0,0,0-1.39,1.39L144.29,45h-29a3.57,3.57,0,0,0-3,1.71L-10,168.89V206Z"/><path class="cls-3" d="M176.3,114.87a22.39,22.39,0,0,1-2,9.29H154a3.58,3.58,0,0,1-3.57-3.58V109.89a8.67,8.67,0,0,0-2.55-6.13l-7.23-7.18a22.49,22.49,0,0,1,35.61,18.29Zm70.31-65.35h-8.84a3.6,3.6,0,0,0-3.58,3.59v5.54h-6.9V48.54A3.59,3.59,0,0,0,223.71,45H199V38.37a3.58,3.58,0,0,0-3.58-3.58H155.79a3.52,3.52,0,0,0-3.61,3.53V45H115.25a3.59,3.59,0,0,0-3.57,3.57V84.07a3.59,3.59,0,0,0,3.57,3.57h9.47a39.83,39.83,0,0,1,67.83,36.52h31.17a3.57,3.57,0,0,0,3.57-3.58V110.46h6.9V116a3.61,3.61,0,0,0,3.59,3.6h8.81a3.57,3.57,0,0,0,3.57-3.57V53.13A3.55,3.55,0,0,0,246.61,49.52Zm-57.42,65.36A35.39,35.39,0,0,1,134,144.24l-22.6,22.6a6.8,6.8,0,1,1-9.61-9.62l22.6-22.6a35.39,35.39,0,1,1,64.76-19.74Zm-8.42,0a27,27,0,1,0-27,27A27,27,0,0,0,180.77,114.88Z"/></svg>