<svg id="Layer_1" data-name="Layer 1" xmlns="http://www.w3.org/2000/svg" xmlns:xlink="http://www.w3.org/1999/xlink" viewBox="0 0 350 196"><defs><style>.cls-1{fill:#2bace2;}.cls-2{fill:url(#linear-gradient);}.cls-3{fill:#fff;}</style><linearGradient id="linear-gradient" x1="16.61" y1="255.13" x2="146.16" y2="125.58" gradientUnits="userSpaceOnUse"><stop offset="0" stop-color="#3694d1" stop-opacity="0"/><stop offset="1" stop-color="#3694d1"/></linearGradient></defs><title>marketplace-category-thumbnail-driver-management-and-training</title><rect class="cls-1" x="-10" y="-10" width="370" height="216"/><path class="cls-2" d="M248.29,83.24a11.41,11.41,0,0,0-1.32.08,78.91,78.91,0,0,0-60.69-46.61,11.59,11.59,0,0,0-22.94,0,78.15,78.15,0,0,0-32.17,12.44,79.2,79.2,0,0,0-21.74,21.74l-14.7,14.7a11.72,11.72,0,0,0-2.28,2.28L-10,190.32V206H159.15l49.73-49.73a54.46,54.46,0,0,0,4.43-4.43,51.49,51.49,0,0,0,9.22-14.92l33-33a12.34,12.34,0,0,0,1.77-1.77,11.6,11.6,0,0,0-9-18.88Z"/><path class="cls-3" d="M259.9,94.85A11.61,11.61,0,1,1,242.13,85,73.79,73.79,0,0,0,185.9,41.83a11.61,11.61,0,0,1-22.19,0,73.76,73.76,0,0,0-56.14,43,11.59,11.59,0,1,1-5.86-1.6c.32,0,.64,0,1,.05a78.93,78.93,0,0,1,60.68-46.58,11.59,11.59,0,0,1,22.94,0A78.91,78.91,0,0,1,247,83.32a11.41,11.41,0,0,1,1.32-.08A11.61,11.61,0,0,1,259.9,94.85Zm-33.67,22.92a51.43,51.43,0,1,1-51.42-51.43A51.42,51.42,0,0,1,226.23,117.77ZM168.5,146.09a24.39,24.39,0,0,0-24.39-24.38h-8.26a39.18,39.18,0,0,0,32.65,34.7Zm45.26-24.38h-8.25a24.39,24.39,0,0,0-24.39,24.38v10.32A39.16,39.16,0,0,0,213.76,121.71ZM213,109.08a39.15,39.15,0,0,0-76.35,0Z"/></svg>